<svg width="40" height="40" viewBox="0 0 40 40" fill="none" xmlns="http://www.w3.org/2000/svg">
<path d="M17.6562 22.8977V30.5469H22.3438V22.8977C22.3438 21.712 22.0485 20.5573 21.466 19.4655L21.03 18.6496L21.7223 18.0362C22.1469 17.662 22.3438 17.1687 22.3438 16.4844C22.3438 15.1958 21.0002 13.4151 19.9977 12.3027C18.8842 13.5352 17.6562 15.2816 17.6562 16.4844C17.6562 17.1687 17.8531 17.662 18.2777 18.0362L18.97 18.6496L18.534 19.4655C17.9515 20.5573 17.6562 21.712 17.6562 22.8977V22.8977Z" fill="#3A3D3F"/>
<path d="M0 40H4.6875V22.8977C4.6875 21.6136 4.95984 20.3193 5.48172 19.1097C4.95984 18.3818 4.6875 17.4891 4.6875 16.4844C4.6875 13.533 7.66328 10.2119 7.99398 9.84336L8.86719 8.86836L9.74039 9.84336C10.0711 10.2119 12.9688 13.533 12.9688 16.4844C12.9688 17.4891 12.6964 18.3818 12.1745 19.1097C12.6964 20.3193 12.9688 21.6136 12.9688 22.8977V30.5469H15.3125V22.8977C15.3125 21.6136 15.5848 20.3193 16.1067 19.1097C15.5848 18.3818 15.3125 17.4891 15.3125 16.4844C15.3125 13.4723 18.8041 10.1375 19.2023 9.76672L20 9.02398L20.7977 9.76672C21.1959 10.1375 24.6875 13.4723 24.6875 16.4844C24.6875 17.4891 24.4152 18.3818 23.8933 19.1097C24.4152 20.3193 24.6875 21.6136 24.6875 22.8977V30.5469H27.0312V22.8977C27.0312 21.6136 27.3036 20.3193 27.8255 19.1097C27.3036 18.3818 27.0312 17.4891 27.0312 16.4844C27.0312 13.533 29.9289 10.2119 30.2596 9.84336L31.1328 8.86836L32.0841 9.84336C32.4148 10.2119 35.3125 13.533 35.3125 16.4844C35.3125 17.4891 35.0402 18.3818 34.5183 19.1097C35.0402 20.3193 35.3125 21.6137 35.3125 22.8966V40H40V0H0V40ZM35.3125 2.34375H37.6562V4.6875H35.3125V2.34375ZM28.2031 2.34375H32.9688V4.6875H28.2031V2.34375ZM21.1719 2.34375H25.8594V4.6875H21.1719V2.34375ZM14.1406 2.34375H18.8281V4.6875H14.1406V2.34375ZM7.03125 2.34375H11.7969V4.6875H7.03125V2.34375ZM2.34375 2.34375H4.6875V4.6875H2.34375V2.34375Z" fill="#3A3D3F"/>
<path d="M7.03125 22.8977V40H10.625V34.0625C10.625 33.4159 10.0997 32.8906 9.45312 32.8906H8.82812V30.5469H10.625V22.8977C10.625 21.712 10.3298 20.5573 9.74727 19.4656L9.31125 18.6496L10.0036 18.0362C10.4281 17.662 10.625 17.1688 10.625 16.4844C10.625 15.2621 9.67172 13.6382 8.86602 12.5121C8.05234 13.6428 7.03125 15.253 7.03125 16.4844C7.03125 17.1688 7.22813 17.662 7.65266 18.0362L8.42313 18.6496L7.98711 19.4656C7.40461 20.5573 7.03125 21.712 7.03125 22.8977V22.8977Z" fill="#3A3D3F"/>
<path d="M12.9688 34.0625V40H27.0313V34.0625C27.0313 33.6516 27.1022 33.2568 27.2315 32.8906H12.7686C12.8979 33.2569 12.9688 33.6516 12.9688 34.0625V34.0625Z" fill="#3A3D3F"/>
<path d="M30.5469 32.8906C29.9003 32.8906 29.375 33.4159 29.375 34.0625V40H32.9688V22.8965C32.9688 21.712 32.6735 20.5573 32.091 19.4656L31.655 18.6496L32.3473 18.0362C32.7719 17.662 32.9688 17.1688 32.9688 16.4844C32.9688 15.2621 31.9373 13.6382 31.1316 12.5121C30.318 13.6428 29.375 15.253 29.375 16.4844C29.375 17.1688 29.5719 17.662 29.9964 18.0362L30.6888 18.6496L30.2527 19.4656C29.6702 20.5573 29.375 21.712 29.375 22.8977V30.5469H31.1719V32.8906H30.5469Z" fill="#3A3D3F"/>
</svg>
