<svg width="40" height="40" viewBox="0 0 40 40" fill="none" xmlns="http://www.w3.org/2000/svg">
<g clip-path="url(#clip0)">
<path d="M9.56512 26.9565C8.8459 26.9565 8.26074 27.5417 8.26074 28.2609V32.174H10.8694V28.2609C10.8695 27.5416 10.2843 26.9565 9.56512 26.9565Z" fill="#3A3D3F"/>
<path d="M30.4349 26.9565C29.7157 26.9565 29.1305 27.5417 29.1305 28.2609V32.174H31.7392V28.2609C31.7392 27.5416 31.1541 26.9565 30.4349 26.9565Z" fill="#3A3D3F"/>
<path d="M20.0001 26.9565C19.2808 26.9565 18.6957 27.5417 18.6957 28.2609V40.0001H21.3044V28.2608C21.3044 27.5416 20.7193 26.9565 20.0001 26.9565Z" fill="#3A3D3F"/>
<mask id="mask0" mask-type="alpha" maskUnits="userSpaceOnUse" x="0" y="0" width="40" height="41">
<path d="M38.2609 13.913H33.0435C32.323 13.913 31.7391 14.4968 31.7391 15.2174V19.1304H29.1305V15.2174C29.1305 14.4968 28.5466 13.913 27.8261 13.913H26.5217V10.4347H27.8261C28.9852 10.4347 29.5685 9.0275 28.7483 8.20812L20.9222 0.382091C20.4127 -0.127364 19.5872 -0.127364 19.0777 0.382091L11.2517 8.2082C10.4315 9.0275 11.0148 10.4348 12.1739 10.4348H13.4783V13.9131H12.1739C11.4534 13.9131 10.8696 14.4969 10.8696 15.2174V19.1305H8.26088V15.2174C8.26088 14.4969 7.67705 13.9131 6.9565 13.9131H1.73907C1.01852 13.9131 0.434692 14.4969 0.434692 15.2174V38.6958C0.434692 39.4163 1.01852 40.0001 1.73907 40.0001H16.0869V28.2608C16.0869 26.1031 17.8422 24.3478 20 24.3478C22.1577 24.3478 23.913 26.1031 23.913 28.2608V40H38.2609C38.9809 40 39.5652 39.4161 39.5652 38.6956V15.2174C39.5652 14.4968 38.981 13.913 38.2609 13.913ZM13.4782 33.4782C13.4782 34.1988 12.8944 34.7826 12.1739 34.7826H6.9565C6.23595 34.7826 5.65212 34.1988 5.65212 33.4782V28.2608C5.65212 26.1031 7.40744 24.3478 9.56518 24.3478C11.7229 24.3478 13.4782 26.1031 13.4782 28.2608V33.4782ZM34.3479 33.4782C34.3479 34.1988 33.7641 34.7826 33.0435 34.7826H27.8261C27.1055 34.7826 26.5217 34.1988 26.5217 33.4782V28.2608C26.5217 26.1031 28.277 24.3478 30.4348 24.3478C32.5925 24.3478 34.3478 26.1031 34.3478 28.2608L34.3479 33.4782Z" fill="black"/>
</mask>
<g mask="url(#mask0)">
<rect x="-1" y="14" width="42" height="26" fill="#3A3D3F"/>
</g>
</g>
<defs>
<clipPath id="clip0">
<rect width="40" height="40" fill="white"/>
</clipPath>
</defs>
</svg>
