<svg width="40" height="25" viewBox="0 0 40 25" fill="none" xmlns="http://www.w3.org/2000/svg">
<path d="M39.3334 4.13392H36.6667V1.46728H39.3334C39.7334 1.46728 40 1.20064 40 0.800643C40 0.400643 39.7334 0.134003 39.3334 0.134003H0.666641C0.266641 0.134003 0 0.400643 0 0.800643C0 1.20064 0.266641 1.46728 0.666641 1.46728H3.33328V4.13392H0.666641C0.266641 4.13392 0 4.40056 0 4.80056V7.46728C0 7.86728 0.266641 8.13392 0.666641 8.13392H1.33328V24.1339C1.33328 24.5339 1.59992 24.8006 1.99992 24.8006H8.66656C9.06656 24.8006 9.3332 24.5339 9.3332 24.1339C9.3332 18.2673 14.1332 13.4673 19.9998 13.4673C25.8665 13.4673 30.6665 18.2673 30.6665 24.1339C30.6665 24.5339 30.9331 24.8006 31.3331 24.8006H38C38.4 24.8006 38.6666 24.5339 38.6666 24.1339V8.13392H39.3333C39.7333 8.13392 39.9999 7.86728 39.9999 7.46728V4.80064C40 4.40064 39.7334 4.13392 39.3334 4.13392ZM32.6666 1.46728H35.3333V4.13392H32.6666V1.46728ZM28.6666 1.46728H31.3333V4.13392H28.6666V1.46728ZM24.6666 1.46728H27.3333V4.13392H24.6666V1.46728ZM20.6666 1.46728H23.3333V4.13392H20.6666V1.46728ZM16.6666 1.46728H19.3333V4.13392H16.6666V1.46728ZM12.6666 1.46728H15.3333V4.13392H12.6666V1.46728ZM8.66664 1.46728H11.3333V4.13392H8.66664V1.46728V1.46728ZM4.66664 1.46728H7.33328V4.13392H4.66664V1.46728ZM4 10.8006C4 10.4006 4.26664 10.134 4.66664 10.134H7.33328C7.73328 10.134 7.99992 10.4006 7.99992 10.8006C7.99992 11.2006 7.73328 11.4673 7.33328 11.4673H4.66664C4.26664 11.4673 4 11.2006 4 10.8006ZM9.33336 14.8006H6.66664C6.26664 14.8006 6 14.534 6 14.134C6 13.734 6.26664 13.4674 6.66664 13.4674H9.33328C9.73328 13.4674 9.99992 13.734 9.99992 14.134C10 14.5339 9.73336 14.8006 9.33336 14.8006ZM33.3334 14.8006H30.6667C30.2667 14.8006 30.0001 14.534 30.0001 14.134C30.0001 13.734 30.2667 13.4674 30.6667 13.4674H33.3334C33.7334 13.4674 34 13.734 34 14.134C34 14.5339 33.7334 14.8006 33.3334 14.8006ZM35.3334 11.4673H32.6667C32.2667 11.4673 32.0001 11.2006 32.0001 10.8006C32.0001 10.4006 32.2667 10.134 32.6667 10.134H35.3334C35.7334 10.134 36 10.4006 36 10.8006C36 11.2006 35.7334 11.4673 35.3334 11.4673ZM38.6666 6.80064H38H2H1.33336V5.46728H38.6667V6.80064H38.6666Z" fill="#3A3D3F"/>
</svg>
