<svg width="40" height="40" viewBox="0 0 40 40" fill="none" xmlns="http://www.w3.org/2000/svg">
<path d="M30.6174 25.7965H32.9651V29.7708H30.6174V25.7965Z" fill="#3A3D3F"/>
<path d="M7.03491 25.7965H9.38263V29.7708H7.03491V25.7965Z" fill="#3A3D3F"/>
<path d="M23.5824 27.8152C23.5824 25.8398 21.9753 24.2328 19.9999 24.2328C18.0245 24.2328 16.4175 25.8398 16.4175 27.8152V36.806H23.5824V27.8152Z" fill="#3A3D3F"/>
<path d="M37.6562 17.9779H0V36.806H14.0738V27.8152C14.0738 24.5477 16.7322 21.889 20 21.889C23.2678 21.889 25.9262 24.5477 25.9262 27.8152V36.806H40V17.9779H37.6562ZM4.69116 23.4528H11.7264V32.1146H4.69116V23.4528ZM28.2736 23.4528H35.3088V32.1146H28.2736V23.4528Z" fill="#3A3D3F"/>
<path d="M33.5516 15.6342C32.9553 8.68011 27.1057 3.20312 20 3.20312C12.8943 3.20312 7.04468 8.68011 6.44836 15.6342H33.5516Z" fill="#3A3D3F"/>
</svg>
