<svg width="40" height="40" viewBox="0 0 40 40" fill="none" xmlns="http://www.w3.org/2000/svg">
<path d="M20.7681 0H19.2317C12.3637 0 6.79614 5.56761 6.79614 12.4355V26.1739H33.2037V12.4355C33.2037 5.56753 27.6361 0 20.7681 0ZM24.8037 22.3965H15.1961C14.5488 22.3965 14.024 21.8717 14.024 21.2244C14.024 20.5771 14.5488 20.0523 15.1961 20.0523H24.8037C25.451 20.0523 25.9758 20.5771 25.9758 21.2244C25.9758 21.8717 25.4511 22.3965 24.8037 22.3965ZM24.8037 17.7081H15.1961C14.5488 17.7081 14.024 17.1833 14.024 16.536C14.024 15.8887 14.5488 15.3639 15.1961 15.3639H24.8037C25.451 15.3639 25.9758 15.8887 25.9758 16.536C25.9758 17.1833 25.4511 17.7081 24.8037 17.7081ZM24.8037 13.0197H15.1961C14.5488 13.0197 14.024 12.4949 14.024 11.8476C14.024 11.2003 14.5488 10.6755 15.1961 10.6755H24.8037C25.451 10.6755 25.9758 11.2003 25.9758 11.8476C25.9758 12.4949 25.4511 13.0197 24.8037 13.0197Z" fill="#3A3D3F"/>
<path d="M37.5215 32.7007V29.6901C37.5215 29.0428 36.9967 28.518 36.3494 28.518H3.65073C3.00342 28.518 2.47864 29.0428 2.47864 29.6901V32.7007H37.5215Z" fill="#3A3D3F"/>
<path d="M40 39.99H0V36.217C0 35.5697 0.524786 35.0449 1.17209 35.0449H38.8279C39.4752 35.0449 40 35.5697 40 36.217V39.99Z" fill="#3A3D3F"/>
</svg>
