<svg id="Capa_1" enable-background="new 0 0 512 512" height="512" viewBox="0 0 512 512" width="512" xmlns="http://www.w3.org/2000/svg"><g><path d="m226 293.09v97.91h60v-97.91c0-15.176-3.779-29.956-11.235-43.931l-5.581-10.444 8.862-7.852c5.434-4.79 7.954-11.103 7.954-19.863 0-16.494-17.197-39.287-30.029-53.525-14.253 15.776-29.971 38.129-29.971 53.525 0 8.76 2.52 15.073 7.954 19.863l8.862 7.852-5.581 10.444c-7.456 13.975-11.235 28.755-11.235 43.931z"/><path d="m0 512h60v-218.91c0-16.436 3.486-33.003 10.166-48.486-6.68-9.317-10.166-20.743-10.166-33.604 0-37.778 38.09-80.288 42.323-85.005l11.177-12.48 11.177 12.48c4.233 4.717 41.323 47.227 41.323 85.005 0 12.861-3.486 24.287-10.166 33.604 6.68 15.483 10.166 32.05 10.166 48.486v97.91h30v-97.91c0-16.436 3.486-33.003 10.166-48.486-6.68-9.317-10.166-20.743-10.166-33.604 0-38.555 44.692-81.24 49.79-85.986l10.21-9.507 10.21 9.507c5.098 4.746 49.79 47.431 49.79 85.986 0 12.861-3.486 24.287-10.166 33.604 6.68 15.483 10.166 32.05 10.166 48.486v97.91h30v-97.91c0-16.436 3.486-33.003 10.166-48.486-6.68-9.317-10.166-20.743-10.166-33.604 0-37.778 37.09-80.288 41.323-85.005l11.177-12.48 12.177 12.48c4.233 4.717 41.323 47.227 41.323 85.005 0 12.861-3.486 24.287-10.166 33.604 6.68 15.483 10.166 32.051 10.166 48.472v218.924h60v-512h-512zm452-482h30v30h-30zm-91 0h61v30h-61zm-90 0h60v30h-60zm-90 0h60v30h-60zm-91 0h61v30h-61zm-60 0h30v30h-30z"/><path d="m90 293.09v218.91h46v-76c0-8.276-6.724-15-15-15h-8v-30h23v-97.91c0-15.176-3.779-29.956-11.235-43.931l-5.581-10.444 8.862-7.852c5.434-4.79 7.954-11.103 7.954-19.863 0-15.645-12.202-36.431-22.515-50.845-10.415 14.473-23.485 35.083-23.485 50.845 0 8.76 2.52 15.073 7.954 19.863l9.862 7.852-5.581 10.444c-7.456 13.975-12.235 28.755-12.235 43.931z"/><path d="m166 436v76h180v-76c0-5.259.908-10.313 2.563-15h-185.126c1.655 4.688 2.563 9.741 2.563 15z"/><path d="m391 421c-8.276 0-15 6.724-15 15v76h46v-218.925c0-15.161-3.779-29.941-11.235-43.916l-5.581-10.444 8.862-7.852c5.434-4.79 7.954-11.103 7.954-19.863 0-15.645-13.202-36.431-23.515-50.845-10.415 14.473-22.485 35.083-22.485 50.845 0 8.76 2.52 15.073 7.954 19.863l8.862 7.852-5.581 10.444c-7.456 13.975-11.235 28.755-11.235 43.931v97.91h23v30z"/></g></svg>